<svg xmlns="http://www.w3.org/2000/svg" xmlns:xlink="http://www.w3.org/1999/xlink" width="28" height="29" viewBox="0 0 28 29">
    <defs>
        <path id="prefix__a" d="M0 0.009L27.354 0.009 27.354 27.363 0 27.363z"/>
    </defs>
    <g fill="none" fill-rule="evenodd">
        <g transform="translate(0 .046)">
            <mask id="prefix__b" fill="#fff">
                <use xlink:href="#prefix__a"/>
            </mask>
            <path fill="#FFF" d="M13.677.009c-3.714 0-4.18.015-5.639.082-1.456.066-2.45.298-3.32.636-.9.35-1.662.817-2.422 1.577-.76.76-1.228 1.523-1.578 2.423-.338.87-.57 1.864-.636 3.32C.016 9.506 0 9.97 0 13.686c0 3.714.016 4.18.082 5.639.067 1.456.298 2.45.636 3.32.35.9.817 1.662 1.578 2.422.76.76 1.523 1.229 2.422 1.578.87.338 1.864.57 3.32.636 1.459.066 1.925.082 5.64.082 3.714 0 4.18-.016 5.638-.082 1.456-.067 2.45-.298 3.32-.636.9-.35 1.663-.817 2.423-1.578.76-.76 1.228-1.523 1.577-2.422.339-.87.57-1.864.636-3.32.067-1.459.083-1.925.083-5.64 0-3.714-.016-4.18-.083-5.638-.066-1.456-.297-2.45-.636-3.32-.35-.9-.817-1.662-1.577-2.423-.76-.76-1.523-1.228-2.423-1.577-.87-.338-1.864-.57-3.32-.636-1.459-.067-1.924-.082-5.639-.082m0 2.464c3.652 0 4.085.014 5.527.08 1.334.06 2.058.283 2.54.47.638.249 1.094.545 1.572 1.024.479.478.775.934 1.023 1.572.188.482.41 1.207.471 2.54.066 1.442.08 1.875.08 5.527s-.014 4.084-.08 5.527c-.06 1.333-.283 2.057-.47 2.54-.249.638-.545 1.093-1.024 1.572-.478.479-.934.775-1.572 1.023-.482.187-1.206.41-2.54.471-1.442.066-1.874.08-5.527.08-3.652 0-4.085-.014-5.527-.08-1.333-.06-2.057-.284-2.54-.47-.638-.249-1.093-.545-1.572-1.024-.478-.479-.775-.934-1.023-1.573-.187-.482-.41-1.206-.47-2.54-.067-1.442-.08-1.874-.08-5.526 0-3.652.013-4.085.08-5.527.06-1.333.283-2.058.47-2.54.248-.638.545-1.094 1.023-1.572.479-.479.934-.775 1.573-1.023.482-.188 1.206-.41 2.54-.471 1.442-.066 1.874-.08 5.526-.08" mask="url(#prefix__b)"/>
        </g>
        <path fill="#FFF" d="M13.677 18.29c-2.518 0-4.559-2.04-4.559-4.558s2.041-4.56 4.56-4.56c2.517 0 4.558 2.042 4.558 4.56 0 2.517-2.04 4.559-4.559 4.559m0-11.583c-3.879 0-7.023 3.145-7.023 7.024s3.144 7.023 7.023 7.023c3.88 0 7.024-3.144 7.024-7.023 0-3.88-3.145-7.024-7.024-7.024M22.62 6.43c0 .907-.735 1.642-1.642 1.642-.906 0-1.641-.735-1.641-1.641 0-.907.735-1.642 1.641-1.642.907 0 1.641.735 1.641 1.642"/>
    </g>
</svg>
